<svg id="Capa_1" enable-background="new 0 0 510 510" height="512" viewBox="0 0 510 510" width="512" xmlns="http://www.w3.org/2000/svg"><g><path d="m368 15c0-8.284-6.716-15-15-15h-44c-8.284 0-15 6.716-15 15v71.667c0 5.154 4.178 9.333 9.333 9.333h55.334c5.154 0 9.333-4.178 9.333-9.333z"/><path d="m34 367v-335h-19c-8.28 0-15 6.72-15 15v384c0 8.28 6.72 15 15 15h71v-34h-7c-24.81 0-45-20.19-45-45z"/><path d="m495 32h-97v79c0 8.28-6.72 15-15 15h-104c-8.28 0-15-6.72-15-15v-80h-36v336c0 24.81-20.19 45-45 45h-7v34h64v34h-94c0-20.425 0-77.977 0-98h37c8.284 0 15-6.716 15-15 0-17.785 0-337.174 0-352 0-8.284-6.716-15-15-15h-104c-8.284 0-15 6.716-15 15v352c0 8.284 6.716 15 15 15h37v113c0 8.284 6.716 15 15 15h124c8.284 0 15-6.716 15-15v-49h225c8.28 0 15-6.72 15-15v-384c0-8.28-6.72-15-15-15zm-216 128h16c8.28 0 15 6.72 15 15s-6.72 15-15 15h-16c-8.28 0-15-6.72-15-15s6.72-15 15-15zm0 64h16c8.28 0 15 6.72 15 15s-6.72 15-15 15h-16c-8.28 0-15-6.72-15-15s6.72-15 15-15zm0 64h16c8.28 0 15 6.72 15 15s-6.72 15-15 15h-16c-8.28 0-15-6.72-15-15s6.72-15 15-15zm96 94h-96c-8.28 0-15-6.72-15-15s6.72-15 15-15h96c8.28 0 15 6.72 15 15s-6.72 15-15 15zm0-64h-16c-8.28 0-15-6.72-15-15s6.72-15 15-15h16c8.28 0 15 6.72 15 15s-6.72 15-15 15zm0-64h-16c-8.28 0-15-6.72-15-15s6.72-15 15-15h16c8.28 0 15 6.72 15 15s-6.72 15-15 15zm0-64h-16c-8.28 0-15-6.72-15-15s6.72-15 15-15h16c8.28 0 15 6.72 15 15s-6.72 15-15 15zm88 192h-16c-8.28 0-15-6.72-15-15s6.72-15 15-15h16c8.28 0 15 6.72 15 15s-6.72 15-15 15zm0-64h-16c-8.28 0-15-6.72-15-15s6.72-15 15-15h16c8.28 0 15 6.72 15 15s-6.72 15-15 15zm0-64h-16c-8.28 0-15-6.72-15-15s6.72-15 15-15h16c8.28 0 15 6.72 15 15s-6.72 15-15 15zm0-64h-16c-8.28 0-15-6.72-15-15s6.72-15 15-15h16c8.28 0 15 6.72 15 15s-6.72 15-15 15zm0-64h-16c-8.28 0-15-6.72-15-15s6.72-15 15-15h16c8.28 0 15 6.72 15 15s-6.72 15-15 15z"/></g></svg>