<svg height="512pt" viewBox="0 0 512 512" width="512pt" xmlns="http://www.w3.org/2000/svg"><path d="m398.507812 0h-398.507812v121h308.5zm-307.507812 91h-30v-30h30zm60 0h-30v-30h30zm60 0h-30v-30h30zm0 0"/><path d="m421 211h-330v210h330zm-214.394531 154.394531-21.210938 21.210938-70.605469-70.605469 70.605469-70.605469 21.210938 21.210938-49.394531 49.394531zm40.941406 15.878907-28.09375-10.546876 45-120 28.09375 10.546876zm79.058594 5.332031-21.210938-21.210938 49.394531-49.394531-49.394531-49.394531 21.210938-21.210938 70.605469 70.605469zm0 0"/><path d="m323.5 151h-323.5v361h512v-512h-76zm127.5 300h-390v-270h390zm0 0"/></svg>