<svg id="Layer_3" enable-background="new 0 0 64 64" height="512" viewBox="0 0 64 64" width="512" xmlns="http://www.w3.org/2000/svg"><g><path d="m31 32h2v11h-2z"/><path d="m22 37h-12c-.553 0-1 .447-1 1v5h2v-4h12c.553 0 1-.447 1-1v-6h-2z"/><path d="m53 43h2v-5c0-.553-.447-1-1-1h-12v-5h-2v6c0 .553.447 1 1 1h12z"/><path d="m21 29h24c4.411 0 8-3.589 8-8 0-3.398-2.161-6.433-5.378-7.551-.368-.128-.628-.457-.667-.845-.205-2.054-1.905-3.604-3.955-3.604-.444 0-.89.084-1.363.258-.513.187-1.075-.065-1.274-.569-1.372-3.457-4.654-5.689-8.363-5.689-4.963 0-9 4.037-9 9 0 .284-.119.584-.331.774-.212.189-.492.304-.775.278-.293-.031-.591-.052-.894-.052-4.411 0-8 3.589-8 8s3.589 8 8 8zm2-4h2v2h-2zm-6-4c0 2.206 1.794 4 4 4v2c-3.309 0-6-2.691-6-6z"/><path d="m25.08 55c.344 2.389 1.895 4.388 4.016 5.361-.619-1.464-.98-3.382-1.071-5.361z"/><path d="m25.08 53h2.945c.091-1.98.452-3.897 1.071-5.361-2.121.973-3.672 2.972-4.016 5.361z"/><path d="m32 61c.536 0 1.786-2.097 1.974-6h-3.947c.187 3.903 1.437 6 1.973 6z"/><path d="m34.904 47.639c.619 1.464.98 3.382 1.071 5.361h2.945c-.344-2.389-1.895-4.388-4.016-5.361z"/><path d="m34.904 60.361c2.122-.973 3.672-2.972 4.016-5.361h-2.945c-.091 1.98-.452 3.897-1.071 5.361z"/><path d="m32 47c-.536 0-1.786 2.097-1.974 6h3.947c-.187-3.903-1.437-6-1.973-6z"/><path d="m10 61c.536 0 1.786-2.097 1.974-6h-3.948c.188 3.903 1.438 6 1.974 6z"/><path d="m3.08 53h2.945c.091-1.98.452-3.897 1.071-5.361-2.121.973-3.672 2.972-4.016 5.361z"/><path d="m3.08 55c.344 2.389 1.895 4.388 4.016 5.361-.619-1.464-.98-3.381-1.071-5.361z"/><path d="m10 47c-.536 0-1.786 2.097-1.974 6h3.947c-.187-3.903-1.437-6-1.973-6z"/><path d="m12.904 60.361c2.122-.973 3.672-2.972 4.016-5.361h-2.945c-.091 1.98-.452 3.897-1.071 5.361z"/><path d="m12.904 47.639c.619 1.464.98 3.382 1.071 5.361h2.945c-.344-2.389-1.895-4.388-4.016-5.361z"/><path d="m56.904 60.361c2.122-.973 3.672-2.972 4.016-5.361h-2.945c-.091 1.98-.452 3.897-1.071 5.361z"/><path d="m60.92 53c-.344-2.389-1.895-4.388-4.016-5.361.619 1.464.98 3.382 1.071 5.361z"/><path d="m54 61c.536 0 1.786-2.097 1.974-6h-3.947c.187 3.903 1.437 6 1.973 6z"/><path d="m47.08 53h2.945c.091-1.98.452-3.897 1.071-5.361-2.121.973-3.672 2.972-4.016 5.361z"/><path d="m54 47c-.536 0-1.786 2.097-1.974 6h3.947c-.187-3.903-1.437-6-1.973-6z"/><path d="m47.08 55c.344 2.389 1.895 4.388 4.016 5.361-.619-1.464-.98-3.382-1.071-5.361z"/></g></svg>